<svg width="18" height="11" viewBox="0 0 18 11" fill="none" xmlns="http://www.w3.org/2000/svg">
<path d="M0.879399 10.0532C1.12553 10.2993 1.45931 10.4375 1.80734 10.4375C2.15536 10.4375 2.48914 10.2993 2.73527 10.0532L9.23214 3.55634L15.729 10.0532C15.9766 10.2923 16.3081 10.4246 16.6522 10.4216C16.9964 10.4186 17.3256 10.2806 17.5689 10.0372C17.8122 9.79388 17.9503 9.46469 17.9533 9.12056C17.9563 8.77642 17.824 8.44488 17.5849 8.19734L10.1601 0.772531C9.91395 0.526475 9.58017 0.388248 9.23214 0.388248C8.88412 0.388248 8.55034 0.526475 8.30421 0.772531L0.879399 8.19734C0.633344 8.44347 0.495117 8.77725 0.495117 9.12528C0.495117 9.47331 0.633344 9.80709 0.879399 10.0532Z" fill="#A7A7A7"/>
</svg>
