<svg width="8" height="14" viewBox="0 0 8 14" fill="none" xmlns="http://www.w3.org/2000/svg">
<path d="M0.459779 0.63556C0.272308 0.823087 0.166992 1.0774 0.166992 1.34256C0.166992 1.60772 0.272308 1.86203 0.459779 2.04956L5.40978 6.99956L0.459779 11.9496C0.277621 12.1382 0.176826 12.3908 0.179104 12.653C0.181383 12.9151 0.286552 13.166 0.47196 13.3514C0.657368 13.5368 0.90818 13.6419 1.17038 13.6442C1.43257 13.6465 1.68518 13.5457 1.87378 13.3636L7.53078 7.70655C7.71825 7.51903 7.82356 7.26472 7.82356 6.99956C7.82356 6.73439 7.71825 6.48008 7.53078 6.29256L1.87378 0.63556C1.68625 0.448089 1.43194 0.342773 1.16678 0.342773C0.901614 0.342773 0.647306 0.448089 0.459779 0.63556Z" fill="#A7A7A7"/>
</svg>
